<svg width="21" height="20" viewBox="0 0 21 20" fill="none" xmlns="http://www.w3.org/2000/svg">
<rect x="1.31543" y="0.491211" width="19" height="19" rx="2.5" stroke="#B5B5B5"/>
<path d="M16.1019 6.70058C16.036 6.63422 15.9577 6.58156 15.8714 6.54563C15.7852 6.50971 15.6927 6.49121 15.5993 6.49121C15.506 6.49121 15.4135 6.50971 15.3273 6.54563C15.241 6.58156 15.1627 6.63422 15.0968 6.70058L9.05233 12.7727L6.52898 10.2406C6.46306 10.1743 6.38473 10.1216 6.29849 10.0857C6.21225 10.0498 6.11979 10.0313 6.02641 10.0313C5.93303 10.0313 5.84057 10.0498 5.75433 10.0857C5.66809 10.1216 5.58977 10.1743 5.52385 10.2406C5.45778 10.3068 5.40536 10.3854 5.3696 10.472C5.33384 10.5585 5.31543 10.6513 5.31543 10.7449C5.31543 10.8386 5.33384 10.9314 5.3696 11.0179C5.40536 11.1044 5.45778 11.183 5.52385 11.2492L8.54607 14.2818C8.61199 14.3482 8.69031 14.4009 8.77655 14.4368C8.86279 14.4727 8.95525 14.4912 9.04863 14.4912C9.14201 14.4912 9.23447 14.4727 9.32071 14.4368C9.40695 14.4009 9.48528 14.3482 9.5512 14.2818L16.1002 7.71031C16.1681 7.6451 16.2222 7.5668 16.2591 7.48011C16.2961 7.39341 16.3153 7.30011 16.3154 7.20581C16.3156 7.11151 16.2968 7.01814 16.2601 6.93133C16.2234 6.84451 16.1696 6.76602 16.1019 6.70058Z" fill="#1A5EA9" stroke="#1A5EA9" stroke-width="0.3"/>
</svg>
