<svg width="20" height="21" viewBox="0 0 20 21" fill="none" xmlns="http://www.w3.org/2000/svg">
<g id="child_care" clip-path="url(#clip0_22_3078)">
<path id="Vector" d="M12.0837 10.2435C12.659 10.2435 13.1253 9.77712 13.1253 9.20182C13.1253 8.62653 12.659 8.16016 12.0837 8.16016C11.5084 8.16016 11.042 8.62653 11.042 9.20182C11.042 9.77712 11.5084 10.2435 12.0837 10.2435Z" fill="#7A7A7A"/>
<path id="Vector_2" d="M7.91667 10.2435C8.49196 10.2435 8.95833 9.77712 8.95833 9.20182C8.95833 8.62653 8.49196 8.16016 7.91667 8.16016C7.34137 8.16016 6.875 8.62653 6.875 9.20182C6.875 9.77712 7.34137 10.2435 7.91667 10.2435Z" fill="#7A7A7A"/>
<path id="Vector_3" d="M19.1163 11.0017C19.1497 10.8267 19.1663 10.6433 19.1663 10.4517C19.1663 10.26 19.1497 10.0767 19.1163 9.90166C18.908 8.64333 17.983 7.61833 16.7747 7.25999C16.333 6.32666 15.708 5.50999 14.9497 4.83499C13.633 3.65999 11.8997 2.95166 9.99967 2.95166C8.09967 2.95166 6.36634 3.65999 5.04967 4.83499C4.28301 5.50999 3.65801 6.33499 3.22467 7.25999C2.01634 7.61833 1.09134 8.63499 0.883008 9.90166C0.849674 10.0767 0.833008 10.26 0.833008 10.4517C0.833008 10.6433 0.849674 10.8267 0.883008 11.0017C1.09134 12.26 2.01634 13.285 3.22467 13.6433C3.65801 14.5683 4.28301 15.385 5.03301 16.0517C6.34967 17.235 8.09134 17.9517 9.99967 17.9517C11.908 17.9517 13.6497 17.235 14.9747 16.0517C15.7247 15.385 16.3497 14.56 16.783 13.6433C17.983 13.285 18.908 12.2683 19.1163 11.0017ZM15.833 12.1183C15.7497 12.1183 15.6747 12.1017 15.5913 12.0933C15.4247 12.6517 15.183 13.1683 14.8747 13.6433C13.833 15.235 12.0413 16.285 9.99967 16.285C7.95801 16.285 6.16634 15.235 5.12467 13.6433C4.81634 13.1683 4.57467 12.6517 4.40801 12.0933C4.32467 12.1017 4.24967 12.1183 4.16634 12.1183C3.24967 12.1183 2.49967 11.3683 2.49967 10.4517C2.49967 9.53499 3.24967 8.78499 4.16634 8.78499C4.24967 8.78499 4.32467 8.80166 4.40801 8.80999C4.57467 8.25166 4.81634 7.73499 5.12467 7.25999C6.16634 5.66833 7.95801 4.61833 9.99967 4.61833C12.0413 4.61833 13.833 5.66833 14.8747 7.25999C15.183 7.73499 15.4247 8.25166 15.5913 8.80999C15.6747 8.80166 15.7497 8.78499 15.833 8.78499C16.7497 8.78499 17.4997 9.53499 17.4997 10.4517C17.4997 11.3683 16.7497 12.1183 15.833 12.1183ZM6.24967 12.1183C6.88301 13.5933 8.32467 14.6183 9.99967 14.6183C11.6747 14.6183 13.1163 13.5933 13.7497 12.1183H6.24967Z" fill="#7A7A7A"/>
</g>
<defs>
<clipPath id="clip0_22_3078">
<rect width="20" height="20" fill="white" transform="translate(0 0.45166)"/>
</clipPath>
</defs>
</svg>

