<svg width="29" height="27" viewBox="0 0 29 27" fill="none" xmlns="http://www.w3.org/2000/svg">
<path d="M28.6085 4.55371C28.6085 5.46777 27.8323 6.31074 26.5241 6.99121C24.9444 7.80879 22.5885 8.38769 19.8852 8.56035C19.6843 8.46895 19.4835 8.38262 19.2718 8.30645C17.133 7.46855 14.2886 6.99121 11.2378 6.99121C10.7873 6.99121 10.3476 7.00137 9.9079 7.02168L9.84819 6.99121C8.53996 6.31074 7.76371 5.46777 7.76371 4.55371C7.76371 2.30918 12.4321 0.491211 18.1861 0.491211C23.9402 0.491211 28.6085 2.30918 28.6085 4.55371ZM9.53877 8.67207C10.0925 8.63652 10.6624 8.61621 11.2378 8.61621C14.6143 8.61621 17.6107 9.24082 19.5161 10.2107C20.8623 10.8963 21.6603 11.7494 21.6603 12.6787C21.6603 12.8818 21.6223 13.0799 21.5463 13.2729C21.2966 13.9432 20.6234 14.5576 19.6463 15.0756C19.6409 15.0807 19.6301 15.0807 19.6246 15.0857C19.6083 15.0959 19.5921 15.101 19.5758 15.1111C17.6759 16.0963 14.6468 16.7361 11.2378 16.7361C8.00255 16.7361 5.10925 16.1623 3.19304 15.2584C3.0899 15.2127 2.99219 15.1619 2.89448 15.1111C1.59168 14.4357 0.81543 13.5928 0.81543 12.6787C0.81543 10.9115 3.71416 9.40332 7.76371 8.8498C8.33368 8.77363 8.92537 8.7127 9.53877 8.67207ZM23.3973 12.6787C23.3973 11.5666 22.8219 10.6525 22.0891 9.96699C23.6253 9.74356 25.0313 9.38809 26.2255 8.92598C27.1103 8.58066 27.9354 8.1541 28.6085 7.63105V9.42871C28.6085 10.4088 27.7129 11.3127 26.2309 12.0135C25.4384 12.3893 24.4721 12.7092 23.3865 12.9529C23.3919 12.8615 23.3973 12.7752 23.3973 12.6838V12.6787ZM21.6603 17.5537C21.6603 18.4678 20.884 19.3107 19.5758 19.9912C19.4781 20.042 19.3804 20.0877 19.2772 20.1385C17.3664 21.0424 14.4731 21.6162 11.2378 21.6162C7.82885 21.6162 4.79983 20.9764 2.89991 19.9912C1.59168 19.3107 0.81543 18.4678 0.81543 17.5537V15.7561C1.49397 16.2791 2.31365 16.7057 3.19847 17.051C5.34267 17.8889 8.18712 18.3662 11.2378 18.3662C14.2886 18.3662 17.133 17.8889 19.2772 17.051C19.7006 16.8885 20.1078 16.7006 20.4932 16.4975C20.8243 16.3248 21.1337 16.1318 21.4268 15.9287C21.5083 15.8729 21.5843 15.8119 21.6603 15.7561V15.9287V16.2182V17.5537ZM23.3973 17.5537V15.9287V14.6135C24.4287 14.4002 25.3787 14.1311 26.2255 13.801C27.1103 13.4557 27.9354 13.0291 28.6085 12.5061V14.3037C28.6085 14.8369 28.3371 15.3701 27.7997 15.8729C26.9149 16.7006 25.357 17.3811 23.3865 17.8229C23.3919 17.7365 23.3973 17.6451 23.3973 17.5537ZM11.2378 23.2412C14.2886 23.2412 17.133 22.7639 19.2772 21.926C20.162 21.5807 20.9871 21.1541 21.6603 20.6311V22.4287C21.6603 24.6732 16.9919 26.4912 11.2378 26.4912C5.4838 26.4912 0.81543 24.6732 0.81543 22.4287V20.6311C1.49397 21.1541 2.31365 21.5807 3.19847 21.926C5.34267 22.7639 8.18712 23.2412 11.2378 23.2412Z" fill="#0678FC"/>
</svg>
