<svg viewBox="0 0 31 31" fill="none" xmlns="http://www.w3.org/2000/svg">
<rect x="0.93335" y="0.904785" width="29" height="29" rx="14.5" stroke="#CD3911"/>
<path d="M16.4494 18.1857L14.0666 18.1451L13.7307 8.59567L17.1096 8.65311L16.4494 18.1857ZM13.4729 21.4661C13.4821 20.9257 13.6355 20.5181 13.9332 20.2431C14.231 19.9681 14.6533 19.8353 15.2001 19.8446C15.7535 19.854 16.1743 20.0044 16.4624 20.2959C16.757 20.5874 16.8998 20.9969 16.8908 21.5242C16.882 22.045 16.722 22.4526 16.4109 22.7469C16.1065 23.0347 15.6841 23.1741 15.1437 23.1649C14.6098 23.1558 14.1956 23.0055 13.901 22.714C13.6065 22.4159 13.4638 22 13.4729 21.4661Z" fill="#CD3911"/>
</svg>
