<svg width="29" height="23" viewBox="0 0 29 23" fill="none" xmlns="http://www.w3.org/2000/svg">
<path d="M20.3965 0.436035H2.39648C1.80141 0.438153 1.23148 0.676237 0.811725 1.09805C0.391973 1.51986 0.156686 2.09096 0.157484 2.68604L0.146484 16.186C0.148331 16.7822 0.385976 17.3534 0.807534 17.775C1.22909 18.1965 1.80032 18.4342 2.39648 18.436H20.3965C20.9927 18.4342 21.5639 18.1965 21.9854 17.775C22.407 17.3534 22.6446 16.7822 22.6465 16.186V2.68604C22.6446 2.08987 22.407 1.51864 21.9854 1.09708C21.5639 0.675527 20.9927 0.437881 20.3965 0.436035ZM20.3965 16.186H2.39648V4.93604L11.3965 10.561L20.3965 4.93604V16.186ZM11.3965 8.31104L2.39648 2.68604H20.3965L11.3965 8.31104Z" fill="white"/>
<path d="M22.1465 22.436C25.4602 22.436 28.1465 19.7497 28.1465 16.436C28.1465 13.1223 25.4602 10.436 22.1465 10.436C18.8328 10.436 16.1465 13.1223 16.1465 16.436C16.1465 19.7497 18.8328 22.436 22.1465 22.436Z" fill="white"/>
<path d="M17.2344 14.6431C17.7526 14.6431 18.1784 14.7863 18.5117 15.0728C18.8477 15.3592 19.0156 15.7251 19.0156 16.1704C19.0156 16.1756 19.0156 16.1821 19.0156 16.1899C19.0156 16.453 18.9701 16.6991 18.8789 16.9282C18.7878 17.1548 18.6471 17.3879 18.457 17.6274C18.2695 17.8644 17.9245 18.2134 17.4219 18.6743L16.6875 19.3657V19.4204H19.1758V20.436H15.1836V19.5962L16.6172 18.147C17.0417 17.7147 17.319 17.4139 17.4492 17.2446C17.5794 17.0754 17.6732 16.9204 17.7305 16.7798C17.7878 16.6366 17.8164 16.4868 17.8164 16.3306C17.8164 16.1066 17.7539 15.9373 17.6289 15.8228C17.5065 15.7082 17.3372 15.6509 17.1211 15.6509C16.7279 15.6509 16.2956 15.8462 15.8242 16.2368L15.168 15.4595C15.4544 15.2173 15.6875 15.048 15.8672 14.9517C16.25 14.7459 16.6966 14.6431 17.207 14.6431C17.2174 14.6431 17.2266 14.6431 17.2344 14.6431Z" fill="white"/>
</svg>
