<svg viewBox="0 0 31 29" fill="none" xmlns="http://www.w3.org/2000/svg">
<g clip-path="url(#clip0_22_3326)">
<path d="M30.1855 5.25959C30.1855 6.24624 29.3477 7.15614 27.9355 7.89064C26.2305 8.77314 23.6875 9.39801 20.7695 9.58438C20.5527 9.48571 20.3359 9.39253 20.1074 9.31031C17.7988 8.40589 14.7285 7.89064 11.4355 7.89064C10.9492 7.89064 10.4746 7.9016 10 7.92353L9.93555 7.89064C8.52344 7.15614 7.68555 6.24624 7.68555 5.25959C7.68555 2.83684 12.7246 0.874512 18.9355 0.874512C25.1465 0.874512 30.1855 2.83684 30.1855 5.25959ZM9.60156 9.70497C10.1992 9.6666 10.8145 9.64467 11.4355 9.64467C15.0801 9.64467 18.3145 10.3189 20.3711 11.3658C21.8242 12.1058 22.6855 13.0267 22.6855 14.0298C22.6855 14.249 22.6445 14.4628 22.5625 14.6711C22.293 15.3946 21.5664 16.0579 20.5117 16.617C20.5059 16.6224 20.4941 16.6224 20.4883 16.6279C20.4707 16.6389 20.4531 16.6444 20.4355 16.6553C18.3848 17.7187 15.1152 18.4094 11.4355 18.4094C7.94336 18.4094 4.82031 17.79 2.75195 16.8143C2.64062 16.7649 2.53516 16.7101 2.42969 16.6553C1.02344 15.9263 0.185547 15.0164 0.185547 14.0298C0.185547 12.1222 3.31445 10.4943 7.68555 9.89682C8.30078 9.8146 8.93945 9.74882 9.60156 9.70497ZM24.5605 14.0298C24.5605 12.8293 23.9395 11.8427 23.1484 11.1027C24.8066 10.8615 26.3242 10.4778 27.6133 9.97904C28.5684 9.6063 29.459 9.14587 30.1855 8.58129V10.5217C30.1855 11.5796 29.2188 12.5553 27.6191 13.3117C26.7637 13.7173 25.7207 14.0626 24.5488 14.3257C24.5547 14.2271 24.5605 14.1339 24.5605 14.0352V14.0298ZM22.6855 19.2919C22.6855 20.2785 21.8477 21.1884 20.4355 21.9229C20.3301 21.9777 20.2246 22.027 20.1133 22.0819C18.0508 23.0575 14.9277 23.6769 11.4355 23.6769C7.75586 23.6769 4.48633 22.9863 2.43555 21.9229C1.02344 21.1884 0.185547 20.2785 0.185547 19.2919V17.3515C0.917969 17.916 1.80273 18.3765 2.75781 18.7492C5.07227 19.6536 8.14258 20.1689 11.4355 20.1689C14.7285 20.1689 17.7988 19.6536 20.1133 18.7492C20.5703 18.5738 21.0098 18.371 21.4258 18.1517C21.7832 17.9654 22.1172 17.7571 22.4336 17.5378C22.5215 17.4775 22.6035 17.4117 22.6855 17.3515V17.5378V17.8503V19.2919ZM24.5605 19.2919V17.5378V16.1181C25.6738 15.8879 26.6992 15.5974 27.6133 15.2411C28.5684 14.8684 29.459 14.408 30.1855 13.8434V15.7838C30.1855 16.3593 29.8926 16.9349 29.3125 17.4775C28.3574 18.371 26.6758 19.1055 24.5488 19.5824C24.5547 19.4892 24.5605 19.3905 24.5605 19.2919ZM11.4355 25.431C14.7285 25.431 17.7988 24.9157 20.1133 24.0113C21.0684 23.6386 21.959 23.1781 22.6855 22.6136V24.5539C22.6855 26.9767 17.6465 28.939 11.4355 28.939C5.22461 28.939 0.185547 26.9767 0.185547 24.5539V22.6136C0.917969 23.1781 1.80273 23.6386 2.75781 24.0113C5.07227 24.9157 8.14258 25.431 11.4355 25.431Z" fill="#7A7A7A"/>
</g>
<defs>
<clipPath id="clip0_22_3326">
<rect width="30" height="28.0645" fill="white" transform="translate(0.185547 0.874512)"/>
</clipPath>
</defs>
</svg>
