<svg viewBox="0 0 28 28" fill="none" xmlns="http://www.w3.org/2000/svg">
<g id="autorenew_black_24dp 2" clip-path="url(#clip0_22_5305)">
<path id="Path 596" d="M14.0003 7.00013V9.08846C14.002 9.20263 14.037 9.31383 14.1012 9.40825C14.1654 9.50268 14.2559 9.57619 14.3615 9.61966C14.4671 9.66314 14.5831 9.67467 14.6952 9.65283C14.8073 9.63099 14.9105 9.57673 14.992 9.49679L18.247 6.24179C18.3017 6.18756 18.3451 6.12305 18.3747 6.05196C18.4043 5.98088 18.4196 5.90463 18.4196 5.82763C18.4196 5.75062 18.4043 5.67437 18.3747 5.60329C18.3451 5.53221 18.3017 5.46769 18.247 5.41346L14.992 2.15846C14.9098 2.07784 14.8055 2.02337 14.6923 2.00191C14.5792 1.98046 14.4622 1.99297 14.3562 2.03789C14.2501 2.0828 14.1597 2.15811 14.0964 2.2543C14.0331 2.3505 13.9997 2.46329 14.0003 2.57846V4.66679C11.525 4.66679 9.15102 5.65012 7.40069 7.40046C5.65035 9.1508 4.66702 11.5248 4.66702 14.0001C4.66437 15.1795 4.8902 16.3483 5.33202 17.4418C5.40285 17.6224 5.51761 17.7825 5.6659 17.9076C5.81419 18.0326 5.99133 18.1188 6.18129 18.1582C6.37124 18.1975 6.56802 18.1889 6.75382 18.1331C6.93961 18.0773 7.10855 17.976 7.24535 17.8385C7.40473 17.6852 7.51525 17.4883 7.56299 17.2724C7.61074 17.0565 7.59358 16.8313 7.51368 16.6251C7.17031 15.7928 6.99582 14.9005 7.00035 14.0001C7.00035 12.1436 7.73785 10.3631 9.0506 9.05038C10.3634 7.73762 12.1438 7.00013 14.0003 7.00013ZM20.7554 10.1618C20.5965 10.3154 20.4863 10.5123 20.4386 10.7281C20.3909 10.9438 20.4077 11.1689 20.487 11.3751C20.9168 12.4375 21.0791 13.5892 20.9598 14.729C20.8405 15.8688 20.4431 16.9619 19.8026 17.9122C19.1622 18.8626 18.2981 19.6411 17.2865 20.1795C16.2748 20.7179 15.1464 20.9997 14.0003 21.0001V18.9118C13.9987 18.7976 13.9637 18.6864 13.8995 18.592C13.8353 18.4976 13.7448 18.4241 13.6392 18.3806C13.5336 18.3371 13.4176 18.3256 13.3055 18.3474C13.1934 18.3693 13.0902 18.4235 13.0087 18.5035L9.75368 21.7585C9.69901 21.8127 9.65561 21.8772 9.62599 21.9483C9.59638 22.0194 9.58113 22.0956 9.58113 22.1726C9.58113 22.2496 9.59638 22.3259 9.62599 22.397C9.65561 22.4681 9.69901 22.5326 9.75368 22.5868L13.0087 25.8418C13.0902 25.9217 13.1934 25.976 13.3055 25.9978C13.4176 26.0197 13.5336 26.0081 13.6392 25.9647C13.7448 25.9212 13.8353 25.8477 13.8995 25.7533C13.9637 25.6588 13.9987 25.5476 14.0003 25.4335V23.3335C16.4757 23.3335 18.8497 22.3501 20.6 20.5998C22.3504 18.8495 23.3337 16.4755 23.3337 14.0001C23.3363 12.8207 23.1105 11.652 22.6687 10.5585C22.5978 10.3779 22.4831 10.2178 22.3348 10.0927C22.1865 9.96761 22.0094 9.88148 21.8194 9.8421C21.6295 9.80272 21.4327 9.81133 21.2469 9.86715C21.0611 9.92297 20.8921 10.0242 20.7554 10.1618Z" fill="#FFBF00"/>
</g>
<defs>
<clipPath id="clip0_22_5305">
<rect width="28" height="28" fill="white"/>
</clipPath>
</defs>
</svg>
