<svg  viewBox="0 0 29 29" fill="none" xmlns="http://www.w3.org/2000/svg">
<g clip-path="url(#clip0_22_3095)">
<path d="M14.5043 7.45179V9.54012C14.5059 9.65429 14.5409 9.76549 14.6051 9.85991C14.6693 9.95434 14.7598 10.0278 14.8654 10.0713C14.971 10.1148 15.087 10.1263 15.1991 10.1045C15.3112 10.0826 15.4144 10.0284 15.4959 9.94845L18.7509 6.69345C18.8056 6.63922 18.849 6.57471 18.8786 6.50362C18.9082 6.43254 18.9235 6.35629 18.9235 6.27929C18.9235 6.20228 18.9082 6.12603 18.8786 6.05495C18.849 5.98387 18.8056 5.91935 18.7509 5.86512L15.4959 2.61012C15.4137 2.5295 15.3094 2.47503 15.1963 2.45357C15.0831 2.43212 14.9661 2.44463 14.8601 2.48955C14.754 2.53446 14.6637 2.60977 14.6003 2.70596C14.537 2.80216 14.5036 2.91495 14.5043 3.03012V5.11845C12.0289 5.11845 9.65493 6.10178 7.90459 7.85212C6.15425 9.60246 5.17092 11.9764 5.17092 14.4518C5.16828 15.6312 5.3941 16.7999 5.83592 17.8935C5.90676 18.0741 6.02152 18.2341 6.16981 18.3592C6.31809 18.4843 6.49523 18.5704 6.68519 18.6098C6.87515 18.6492 7.07193 18.6406 7.25772 18.5848C7.44352 18.5289 7.61246 18.4277 7.74925 18.2901C7.90864 18.1369 8.01915 17.9399 8.0669 17.724C8.11464 17.5081 8.09749 17.283 8.01759 17.0768C7.67421 16.2445 7.49972 15.3522 7.50425 14.4518C7.50425 12.5953 8.24175 10.8148 9.55451 9.50204C10.8673 8.18928 12.6477 7.45179 14.5043 7.45179ZM21.2593 10.6135C21.1004 10.767 20.9902 10.964 20.9425 11.1797C20.8948 11.3955 20.9116 11.6205 20.9909 11.8268C21.4207 12.8892 21.583 14.0408 21.4637 15.1806C21.3444 16.3204 20.947 17.4135 20.3065 18.3639C19.6661 19.3142 18.802 20.0928 17.7904 20.6312C16.7787 21.1696 15.6503 21.4514 14.5043 21.4518V19.3635C14.5027 19.2493 14.4676 19.1381 14.4034 19.0437C14.3392 18.9492 14.2487 18.8757 14.1431 18.8323C14.0375 18.7888 13.9215 18.7772 13.8094 18.7991C13.6973 18.8209 13.5941 18.8752 13.5126 18.9551L10.2576 22.2101C10.2029 22.2644 10.1595 22.3289 10.1299 22.4C10.1003 22.471 10.085 22.5473 10.085 22.6243C10.085 22.7013 10.1003 22.7775 10.1299 22.8486C10.1595 22.9197 10.2029 22.9842 10.2576 23.0385L13.5126 26.2935C13.5941 26.3734 13.6973 26.4277 13.8094 26.4495C13.9215 26.4713 14.0375 26.4598 14.1431 26.4163C14.2487 26.3728 14.3392 26.2993 14.4034 26.2049C14.4676 26.1105 14.5027 25.9993 14.5043 25.8851V23.7851C16.9796 23.7851 19.3536 22.8018 21.1039 21.0515C22.8543 19.3011 23.8376 16.9271 23.8376 14.4518C23.8402 13.2724 23.6144 12.1036 23.1726 11.0101C23.1017 10.8295 22.987 10.6694 22.8387 10.5444C22.6904 10.4193 22.5133 10.3331 22.3233 10.2938C22.1334 10.2544 21.9366 10.263 21.7508 10.3188C21.565 10.3746 21.3961 10.4759 21.2593 10.6135Z" fill="#686464"/>
</g>
<defs>
<clipPath id="clip0_22_3095">
<rect width="28" height="28" fill="white" transform="translate(0.503906 0.45166)"/>
</clipPath>
</defs>
</svg>
