<svg  viewBox="0 0 19 19" fill="none" xmlns="http://www.w3.org/2000/svg">
<g id="Path 411" clip-path="url(#clip0_22_3069)">
<path id="Path 411_2" d="M0.058685 14.9103V17.9493C0.058685 18.0819 0.111363 18.2091 0.205131 18.3028C0.298899 18.3966 0.426077 18.4493 0.558685 18.4493H3.59669C3.66227 18.4501 3.72731 18.4372 3.7876 18.4114C3.84788 18.3856 3.90208 18.3474 3.94669 18.2993L14.8597 7.39928L11.1117 3.64728L0.206688 14.5513C0.158421 14.5979 0.120212 14.6538 0.0944135 14.7157C0.068615 14.7777 0.0557728 14.8442 0.0566861 14.9113M17.7567 4.49728C17.9426 4.30996 18.047 4.05672 18.047 3.79278C18.047 3.52884 17.9426 3.2756 17.7567 3.08828L15.4197 0.74928C15.2324 0.563334 14.9791 0.458984 14.7152 0.458984C14.4512 0.458984 14.198 0.563334 14.0107 0.74928L12.1817 2.57828L15.9297 6.32628L17.7587 4.49728" fill="#0678FC"/>
</g>
<defs>
<clipPath id="clip0_22_3069">
<rect width="17.992" height="17.992" fill="white" transform="translate(0.0585938 0.456055)"/>
</clipPath>
</defs>
</svg>
