<svg width="20" height="20" viewBox="0 0 20 20" fill="none" xmlns="http://www.w3.org/2000/svg">
<path d="M10 10C10.9889 10 11.9556 9.70676 12.7779 9.15735C13.6001 8.60794 14.241 7.82705 14.6194 6.91342C14.9978 5.99979 15.0969 4.99446 14.9039 4.02455C14.711 3.05465 14.2348 2.16373 13.5355 1.46447C12.8363 0.765206 11.9454 0.289002 10.9755 0.0960758C10.0055 -0.0968503 9.00021 0.00216643 8.08658 0.380605C7.17295 0.759043 6.39206 1.39991 5.84265 2.22215C5.29324 3.0444 5 4.0111 5 5C4.99983 5.65666 5.12903 6.30692 5.38025 6.91363C5.63146 7.52033 5.99975 8.0716 6.46408 8.53593C6.9284 9.00025 7.47967 9.36854 8.08638 9.61976C8.69308 9.87097 9.34334 10.0002 10 10ZM10 12.5C6.66667 12.5 0 14.1747 0 17.5V20H20V17.5C20 14.1747 13.3333 12.5 10 12.5Z" fill="#0678FC"/>
</svg>
