<svg width="15" height="16" viewBox="0 0 15 16" fill="none" xmlns="http://www.w3.org/2000/svg">
<path d="M7.5 8C8.24168 8 8.9667 7.78007 9.58339 7.36801C10.2001 6.95596 10.6807 6.37029 10.9645 5.68506C11.2484 4.99984 11.3226 4.24584 11.1779 3.51841C11.0332 2.79098 10.6761 2.1228 10.1517 1.59835C9.6272 1.0739 8.95902 0.716751 8.23159 0.572057C7.50416 0.427362 6.75016 0.501625 6.06494 0.785453C5.37971 1.06928 4.79404 1.54993 4.38199 2.16661C3.96993 2.7833 3.75 3.50832 3.75 4.25C3.74987 4.7425 3.84678 5.23019 4.03518 5.68522C4.22359 6.14025 4.49981 6.5537 4.84806 6.90194C5.1963 7.25019 5.60975 7.52641 6.06478 7.71482C6.51981 7.90323 7.00751 8.00013 7.5 8ZM7.5 9.875C5 9.875 0 11.131 0 13.625V15.5H15V13.625C15 11.131 10 9.875 7.5 9.875Z" fill="white"/>
</svg>
