<svg  viewBox="0 0 20 21" fill="none" xmlns="http://www.w3.org/2000/svg">
<path d="M15.144 11.8625H11.009V15.9975H8.98996V11.8625H4.85596V9.84347H8.99096V5.70947H11.009V9.84447H15.144V11.8625Z" fill="#0678FC"/>
<path d="M10 2.87252C11.8454 2.87317 13.6334 3.5136 15.0596 4.68471C16.4857 5.85582 17.4617 7.48516 17.8213 9.29515C18.1809 11.1051 17.9018 12.9838 17.0316 14.6111C16.1614 16.2384 14.7539 17.5137 13.0489 18.2197C11.344 18.9257 9.44694 19.0187 7.68107 18.4829C5.91521 17.9471 4.38972 16.8156 3.36451 15.2812C2.3393 13.7469 1.87777 11.9045 2.05856 10.068C2.23935 8.23152 3.05127 6.51452 4.356 5.20952C5.09614 4.46698 5.97587 3.87822 6.94452 3.47713C7.91317 3.07604 8.9516 2.87056 10 2.87252ZM10 0.853516C8.02219 0.853516 6.08879 1.44001 4.4443 2.53882C2.79981 3.63763 1.51809 5.19942 0.761209 7.02668C0.00433284 8.85394 -0.193701 10.8646 0.192152 12.8044C0.578004 14.7442 1.53041 16.5261 2.92894 17.9246C4.32746 19.3231 6.10929 20.2755 8.0491 20.6614C9.98891 21.0472 11.9996 20.8492 13.8268 20.0923C15.6541 19.3354 17.2159 18.0537 18.3147 16.4092C19.4135 14.7647 20 12.8313 20 10.8535C20 8.20135 18.9464 5.65781 17.0711 3.78245C15.1957 1.90708 12.6522 0.853516 10 0.853516Z" fill="#0678FC"/>
</svg>
