<svg width="20" height="21" viewBox="0 0 20 21" fill="none" xmlns="http://www.w3.org/2000/svg">
<path d="M17.599 11.436C17.6427 11.1046 17.6597 10.7702 17.65 10.436C17.65 10.086 17.599 9.78604 17.599 9.43604L19.746 7.78604C19.7959 7.75044 19.8381 7.70521 19.8703 7.65302C19.9024 7.60082 19.9238 7.54272 19.9331 7.48213C19.9424 7.42155 19.9395 7.35971 19.9246 7.30027C19.9096 7.24083 19.8829 7.18498 19.846 7.13603L17.8 3.68604C17.7378 3.58549 17.642 3.51024 17.5296 3.47362C17.4172 3.43701 17.2954 3.44141 17.186 3.48604L14.63 4.48604C14.0984 4.07583 13.5138 3.73945 12.892 3.48604L12.534 0.836035C12.5025 0.723631 12.436 0.624212 12.344 0.552263C12.2521 0.480314 12.1396 0.439594 12.023 0.436035H7.92997C7.81329 0.439594 7.7008 0.480314 7.60889 0.552263C7.51697 0.624212 7.45043 0.723631 7.41896 0.836035L7.00996 3.48604C6.39352 3.75088 5.80994 4.08646 5.27096 4.48604L2.71396 3.48604C2.60511 3.4368 2.48179 3.43001 2.3682 3.46701C2.2546 3.50402 2.15893 3.58213 2.09996 3.68604L0.0539649 7.13603C0.00554404 7.24235 -0.0107865 7.36049 0.00697734 7.47596C0.0247412 7.59142 0.0758267 7.69919 0.153965 7.78604L2.35396 9.43604C2.35396 9.78604 2.30296 10.086 2.30296 10.436C2.30296 10.786 2.35396 11.086 2.35396 11.436L0.206965 13.086C0.157059 13.1216 0.114788 13.1669 0.0826462 13.2191C0.0505043 13.2712 0.0291427 13.3294 0.0198219 13.3899C0.0105011 13.4505 0.01341 13.5124 0.0283768 13.5718C0.0433437 13.6312 0.0700653 13.6871 0.106965 13.736L2.15296 17.186C2.21515 17.2866 2.31094 17.3618 2.42335 17.3984C2.53575 17.4351 2.6575 17.4307 2.76696 17.386L5.32397 16.386C5.85553 16.7962 6.44017 17.1326 7.06196 17.386L7.47096 20.036C7.49465 20.1526 7.5591 20.2569 7.65276 20.3302C7.74641 20.4035 7.86313 20.441 7.98197 20.436H12.073C12.1896 20.4325 12.3021 20.3918 12.394 20.3198C12.486 20.2479 12.5525 20.1484 12.584 20.036L12.994 17.386C13.6101 17.1212 14.1933 16.7856 14.732 16.386L17.289 17.386C17.3978 17.4353 17.5211 17.4421 17.6347 17.4051C17.7483 17.3681 17.844 17.2899 17.903 17.186L19.949 13.736C19.9974 13.6297 20.0137 13.5116 19.996 13.3961C19.9782 13.2806 19.9271 13.1729 19.849 13.086L17.599 11.436ZM9.97896 13.936C9.29036 13.9203 8.6217 13.7017 8.05675 13.3077C7.4918 12.9137 7.05567 12.3617 6.80298 11.7209C6.5503 11.0802 6.4923 10.3791 6.63625 9.7055C6.7802 9.03192 7.11969 8.41578 7.61221 7.93427C8.10473 7.45276 8.72838 7.12727 9.40504 6.99858C10.0817 6.86989 10.7813 6.94372 11.4162 7.21081C12.0511 7.47791 12.593 7.9264 12.9742 8.50011C13.3554 9.07382 13.5588 9.74725 13.559 10.436C13.5567 10.9018 13.4619 11.3624 13.2802 11.7912C13.0984 12.2201 12.8334 12.6085 12.5003 12.9341C12.1673 13.2597 11.7729 13.5159 11.3401 13.6879C10.9073 13.8599 10.4446 13.9442 9.97896 13.936Z" fill="white"/>
</svg>
