<svg width="65" height="66" viewBox="0 0 65 66" fill="none" xmlns="http://www.w3.org/2000/svg">
<g id="supervisor_account" clip-path="url(#clip0_22_4620)">
<path id="Vector" d="M44.6878 33.036C48.4253 33.036 51.4316 30.0026 51.4316 26.2651C51.4316 22.5276 48.4253 19.4943 44.6878 19.4943C40.9503 19.4943 37.917 22.5276 37.917 26.2651C37.917 30.0026 40.9503 33.036 44.6878 33.036ZM24.3753 30.3276C28.8712 30.3276 32.4732 26.6985 32.4732 22.2026C32.4732 17.7068 28.8712 14.0776 24.3753 14.0776C19.8795 14.0776 16.2503 17.7068 16.2503 22.2026C16.2503 26.6985 19.8795 30.3276 24.3753 30.3276ZM44.6878 38.4526C39.7316 38.4526 29.792 40.9443 29.792 45.9006V51.9943H59.5837V45.9006C59.5837 40.9443 49.6441 38.4526 44.6878 38.4526ZM24.3753 35.7443C18.0649 35.7443 5.41699 38.9131 5.41699 45.2235V51.9943H24.3753V45.9006C24.3753 43.5985 25.2691 39.5631 30.7941 36.5026C28.4378 36.0151 26.1628 35.7443 24.3753 35.7443Z" fill="#0678FC"/>
</g>
<defs>
<clipPath id="clip0_22_4620">
<rect width="65" height="65" fill="white" transform="translate(0 0.536133)"/>
</clipPath>
</defs>
</svg>
