<svg width="21" height="21" viewBox="0 0 21 21" fill="none" xmlns="http://www.w3.org/2000/svg">
<path d="M10.1455 0.938965C8.1677 0.938965 6.2343 1.52545 4.58981 2.62427C2.94532 3.72308 1.66359 5.28487 0.906717 7.11213C0.149841 8.93939 -0.0481927 10.9501 0.33766 12.8899C0.723512 14.8297 1.67592 16.6115 3.07445 18.01C4.47297 19.4086 6.2548 20.361 8.19461 20.7468C10.1344 21.1327 12.1451 20.9346 13.9723 20.1778C15.7996 19.4209 17.3614 18.1392 18.4602 16.4947C19.559 14.8502 20.1455 12.9168 20.1455 10.939C20.1426 8.28769 19.0881 5.74585 17.2134 3.87111C15.3386 1.99638 12.7968 0.941876 10.1455 0.938965ZM10.2455 5.55397C10.9302 5.55397 11.5996 5.75701 12.1689 6.13742C12.7382 6.51783 13.182 7.05852 13.444 7.69112C13.706 8.32371 13.7746 9.01981 13.641 9.69137C13.5074 10.3629 13.1777 10.9798 12.6935 11.464C12.2093 11.9481 11.5925 12.2779 10.9209 12.4114C10.2494 12.545 9.55326 12.4765 8.92066 12.2144C8.28807 11.9524 7.74737 11.5087 7.36696 10.9394C6.98655 10.37 6.78351 9.70068 6.78351 9.01596C6.78351 8.09778 7.14826 7.21721 7.79751 6.56796C8.44676 5.91871 9.32733 5.55397 10.2455 5.55397ZM10.1455 19.401C8.97837 19.4015 7.82379 19.16 6.75474 18.6917C5.68568 18.2233 4.72538 17.5383 3.93451 16.68C4.35951 14.48 8.17651 14.017 10.1455 14.017C12.1145 14.017 15.9315 14.48 16.3565 16.68C15.5657 17.5384 14.6054 18.2235 13.5364 18.6918C12.4673 19.1602 11.3127 19.4016 10.1455 19.401Z" fill="white"/>
</svg>
