<svg  viewBox="0 0 21 15" fill="none" xmlns="http://www.w3.org/2000/svg">
<g id="V">
<g id="Group 1240">
<path id="Path 361" d="M19.9478 0.8244C19.8321 0.708265 19.6945 0.616119 19.5431 0.553246C19.3916 0.490372 19.2293 0.458008 19.0653 0.458008C18.9013 0.458008 18.739 0.490372 18.5875 0.553246C18.4361 0.616119 18.2986 0.708265 18.1828 0.8244L7.56881 11.4504L3.13781 7.0194C3.02206 6.90326 2.88452 6.81112 2.73308 6.74825C2.58164 6.68537 2.41928 6.65301 2.25531 6.65301C2.09134 6.65301 1.92898 6.68537 1.77754 6.74825C1.62611 6.81112 1.48857 6.90326 1.37281 7.0194C1.2568 7.13522 1.16476 7.27278 1.10196 7.42421C1.03916 7.57564 1.00684 7.73797 1.00684 7.9019C1.00684 8.06583 1.03916 8.22816 1.10196 8.37959C1.16476 8.53102 1.2568 8.66858 1.37281 8.7844L6.67981 14.0914C6.79557 14.2075 6.93311 14.2997 7.08454 14.3626C7.23598 14.4254 7.39834 14.4578 7.56231 14.4578C7.72628 14.4578 7.88864 14.4254 8.04008 14.3626C8.19152 14.2997 8.32906 14.2075 8.44481 14.0914L19.9448 2.5914C20.064 2.47729 20.159 2.34026 20.2239 2.18855C20.2889 2.03684 20.3225 1.87357 20.3228 1.70854C20.323 1.54351 20.29 1.38013 20.2255 1.2282C20.1611 1.07626 20.0666 0.938917 19.9478 0.8244Z" fill="#478C17" stroke="#478C17" stroke-width="0.3"/>
</g>
</g>
</svg>
