<svg width="14" height="14" viewBox="0 0 14 13" fill="none" xmlns="http://www.w3.org/2000/svg">
<path d="M13.1471 0.335715C12.9597 0.149464 12.7063 0.0449219 12.4421 0.0449219C12.1779 0.0449219 11.9245 0.149464 11.7371 0.335715L6.8471 5.21571L1.9571 0.325715C1.7658 0.161888 1.51972 0.0762822 1.26804 0.0860033C1.01637 0.0957245 0.777629 0.200057 0.599535 0.378151C0.42144 0.556246 0.317108 0.794985 0.307386 1.04666C0.297665 1.29834 0.383271 1.54441 0.547098 1.73571L5.4371 6.62571L0.547098 11.5157C0.383271 11.707 0.297665 11.9531 0.307386 12.2048C0.317108 12.4564 0.42144 12.6952 0.599535 12.8733C0.777629 13.0514 1.01637 13.1557 1.26804 13.1654C1.51972 13.1751 1.7658 13.0895 1.9571 12.9257L6.8471 8.03571L11.7371 12.9257C11.9284 13.0895 12.1745 13.1751 12.4262 13.1654C12.6778 13.1557 12.9166 13.0514 13.0947 12.8733C13.2728 12.6952 13.3771 12.4564 13.3868 12.2048C13.3965 11.9531 13.3109 11.707 13.1471 11.5157L8.2571 6.62571L13.1471 1.73571C13.3303 1.54879 13.433 1.29747 13.433 1.03571C13.433 0.773962 13.3303 0.522644 13.1471 0.335715Z" fill="#BC3737"/>
</svg>
