<svg width="24" height="25" viewBox="0 0 24 25" fill="none" xmlns="http://www.w3.org/2000/svg">
<g id="autorenew_black_24dp 1" clip-path="url(#clip0_22_4733)">
<path id="Path 596" d="M12 6.12546V7.91546C12.0014 8.01332 12.0315 8.10863 12.0865 8.18956C12.1415 8.2705 12.2191 8.33351 12.3096 8.37077C12.4001 8.40804 12.4995 8.41792 12.5956 8.3992C12.6917 8.38048 12.7801 8.33398 12.85 8.26546L15.64 5.47546C15.6869 5.42898 15.7241 5.37367 15.7495 5.31275C15.7748 5.25182 15.7879 5.18646 15.7879 5.12046C15.7879 5.05445 15.7748 4.9891 15.7495 4.92817C15.7241 4.86724 15.6869 4.81194 15.64 4.76546L12.85 1.97546C12.7795 1.90635 12.6902 1.85966 12.5932 1.84127C12.4962 1.82288 12.3959 1.83361 12.305 1.87211C12.2141 1.91061 12.1366 1.97515 12.0824 2.05761C12.0281 2.14007 11.9994 2.23674 12 2.33546V4.12546C9.87829 4.12546 7.84346 4.96831 6.34317 6.4686C4.84287 7.96889 4.00002 10.0037 4.00002 12.1255C3.99775 13.1364 4.19132 14.1382 4.57002 15.0755C4.63074 15.2303 4.7291 15.3675 4.85621 15.4747C4.98331 15.5819 5.13514 15.6557 5.29797 15.6895C5.46079 15.7232 5.62946 15.7159 5.78871 15.668C5.94796 15.6202 6.09276 15.5334 6.21002 15.4155C6.34663 15.2841 6.44136 15.1153 6.48228 14.9302C6.52321 14.7452 6.5085 14.5522 6.44002 14.3755C6.1457 13.662 5.99613 12.8972 6.00002 12.1255C6.00002 10.5342 6.63216 9.00803 7.75738 7.88282C8.8826 6.7576 10.4087 6.12546 12 6.12546ZM17.79 8.83546C17.6539 8.96711 17.5594 9.13592 17.5185 9.32085C17.4776 9.50578 17.4921 9.69866 17.56 9.87546C17.9284 10.7861 18.0675 11.7732 17.9653 12.7502C17.863 13.7272 17.5224 14.6641 16.9734 15.4787C16.4244 16.2933 15.6838 16.9606 14.8167 17.4221C13.9495 17.8836 12.9823 18.1251 12 18.1255V16.3355C11.9986 16.2376 11.9686 16.1423 11.9135 16.0613C11.8585 15.9804 11.7809 15.9174 11.6904 15.8801C11.5999 15.8429 11.5005 15.833 11.4044 15.8517C11.3084 15.8704 11.2199 15.9169 11.15 15.9855L8.36002 18.7755C8.31316 18.8219 8.27596 18.8772 8.25057 18.9382C8.22519 18.9991 8.21212 19.0645 8.21212 19.1305C8.21212 19.1965 8.22519 19.2618 8.25057 19.3227C8.27596 19.3837 8.31316 19.439 8.36002 19.4855L11.15 22.2755C11.2199 22.344 11.3084 22.3905 11.4044 22.4092C11.5005 22.4279 11.5999 22.418 11.6904 22.3808C11.7809 22.3435 11.8585 22.2805 11.9135 22.1996C11.9686 22.1186 11.9986 22.0233 12 21.9255V20.1255C14.1218 20.1255 16.1566 19.2826 17.6569 17.7823C19.1572 16.282 20 14.2472 20 12.1255C20.0023 11.1145 19.8087 10.1128 19.43 9.17546C19.3693 9.02066 19.2709 8.88344 19.1438 8.77623C19.0167 8.66901 18.8649 8.59519 18.7021 8.56143C18.5393 8.52768 18.3706 8.53506 18.2113 8.5829C18.0521 8.63075 17.9073 8.71755 17.79 8.83546Z" fill="white"/>
</g>
<defs>
<clipPath id="clip0_22_4733">
<rect width="24" height="24" fill="white" transform="translate(0 0.125488)"/>
</clipPath>
</defs>
</svg>
