<svg width="66" height="66" viewBox="0 0 66 66" fill="none" xmlns="http://www.w3.org/2000/svg">
<g id="autorenew_black_24dp 2" clip-path="url(#clip0_90_1280)">
<path id="Path 596" d="M32.9988 16.4177V21.2656C33.0025 21.5307 33.0839 21.7888 33.2329 22.008C33.382 22.2272 33.5921 22.3979 33.8372 22.4988C34.0823 22.5997 34.3516 22.6265 34.6118 22.5758C34.872 22.5251 35.1116 22.3991 35.3008 22.2136L42.8571 14.6573C42.984 14.5314 43.0848 14.3816 43.1535 14.2166C43.2223 14.0516 43.2576 13.8746 43.2576 13.6958C43.2576 13.5171 43.2223 13.3401 43.1535 13.1751C43.0848 13.01 42.984 12.8603 42.8571 12.7344L35.3008 5.17814C35.1099 4.99098 34.8679 4.86453 34.6052 4.81472C34.3425 4.76492 34.071 4.79398 33.8248 4.89824C33.5786 5.00251 33.3688 5.17732 33.2218 5.40063C33.0748 5.62395 32.9972 5.88579 32.9988 6.15314V11.0011C27.2524 11.0011 21.7414 13.2838 17.6781 17.3471C13.6148 21.4104 11.3321 26.9214 11.3321 32.6677C11.3259 35.4056 11.8502 38.1188 12.8758 40.6573C13.0403 41.0766 13.3067 41.4482 13.6509 41.7386C13.9952 42.0289 14.4064 42.2289 14.8474 42.3203C15.2883 42.4117 15.7451 42.3917 16.1764 42.2621C16.6078 42.1326 16.9999 41.8975 17.3175 41.5781C17.6875 41.2224 17.944 40.7652 18.0549 40.264C18.1657 39.7628 18.1259 39.2401 17.9404 38.7615C17.1433 36.8293 16.7382 34.7579 16.7488 32.6677C16.7488 28.358 18.4608 24.2247 21.5083 21.1772C24.5557 18.1298 28.689 16.4177 32.9988 16.4177ZM48.68 23.7573C48.3112 24.1139 48.0555 24.571 47.9447 25.0719C47.834 25.5728 47.873 26.0952 48.0571 26.574C49.0547 29.0402 49.4316 31.7138 49.1546 34.3597C48.8776 37.0057 47.9552 39.5432 46.4683 41.7493C44.9815 43.9555 42.9758 45.7629 40.6272 47.0128C38.2787 48.2626 35.6592 48.9168 32.9988 48.9177V44.0698C32.995 43.8048 32.9136 43.5466 32.7646 43.3274C32.6155 43.1082 32.4054 42.9376 32.1603 42.8367C31.9152 42.7357 31.6459 42.709 31.3857 42.7597C31.1255 42.8104 30.8859 42.9363 30.6967 43.1219L23.1404 50.6781C23.0135 50.804 22.9128 50.9538 22.844 51.1188C22.7753 51.2838 22.7399 51.4608 22.7399 51.6396C22.7399 51.8184 22.7753 51.9954 22.844 52.1604C22.9128 52.3254 23.0135 52.4752 23.1404 52.6011L30.6967 60.1573C30.8859 60.3429 31.1255 60.4688 31.3857 60.5195C31.6459 60.5702 31.9152 60.5435 32.1603 60.4425C32.4054 60.3416 32.6155 60.171 32.7646 59.9518C32.9136 59.7326 32.995 59.4744 32.9988 59.2094V54.3344C38.7451 54.3344 44.2561 52.0517 48.3194 47.9884C52.3827 43.9251 54.6654 38.4141 54.6654 32.6677C54.6716 29.9298 54.1473 27.2167 53.1217 24.6781C52.9572 24.2589 52.6908 23.8873 52.3466 23.5969C52.0023 23.3065 51.5911 23.1066 51.1501 23.0152C50.7092 22.9237 50.2524 22.9437 49.8211 23.0733C49.3898 23.2029 48.9976 23.438 48.68 23.7573Z" fill="#0678FC"/>
</g>
<defs>
<clipPath id="clip0_90_1280">
<rect width="65" height="65" fill="white" transform="translate(0.498047 0.16748)"/>
</clipPath>
</defs>
</svg>
