<svg width="35" height="36" viewBox="0 0 35 36" fill="none" xmlns="http://www.w3.org/2000/svg">
<g id="supervisor_account" clip-path="url(#clip0_22_4727)">
<path id="Vector" d="M24.0628 17.6253C26.0753 17.6253 27.6941 15.992 27.6941 13.9795C27.6941 11.967 26.0753 10.3337 24.0628 10.3337C22.0503 10.3337 20.417 11.967 20.417 13.9795C20.417 15.992 22.0503 17.6253 24.0628 17.6253ZM13.1253 16.167C15.5462 16.167 17.4857 14.2128 17.4857 11.792C17.4857 9.37116 15.5462 7.41699 13.1253 7.41699C10.7045 7.41699 8.75033 9.37116 8.75033 11.792C8.75033 14.2128 10.7045 16.167 13.1253 16.167ZM24.0628 20.542C21.3941 20.542 16.042 21.8837 16.042 24.5524V27.8337H32.0837V24.5524C32.0837 21.8837 26.7316 20.542 24.0628 20.542ZM13.1253 19.0837C9.72741 19.0837 2.91699 20.7899 2.91699 24.1878V27.8337H13.1253V24.5524C13.1253 23.3128 13.6066 21.1399 16.5816 19.492C15.3128 19.2295 14.0878 19.0837 13.1253 19.0837Z" fill="#0678FC"/>
</g>
<defs>
<clipPath id="clip0_22_4727">
<rect width="35" height="35" fill="white" transform="translate(0 0.125488)"/>
</clipPath>
</defs>
</svg>
