<svg width="35" height="36" viewBox="0 0 35 36" fill="none" xmlns="http://www.w3.org/2000/svg">
<g id="supervisor_account" clip-path="url(#clip0_22_3186)">
<path id="Vector" d="M24.0628 18.4515C26.0753 18.4515 27.6941 16.8182 27.6941 14.8057C27.6941 12.7932 26.0753 11.1598 24.0628 11.1598C22.0503 11.1598 20.417 12.7932 20.417 14.8057C20.417 16.8182 22.0503 18.4515 24.0628 18.4515ZM13.1253 16.9932C15.5462 16.9932 17.4857 15.039 17.4857 12.6182C17.4857 10.1973 15.5462 8.24316 13.1253 8.24316C10.7045 8.24316 8.75033 10.1973 8.75033 12.6182C8.75033 15.039 10.7045 16.9932 13.1253 16.9932ZM24.0628 21.3682C21.3941 21.3682 16.042 22.7098 16.042 25.3786V28.6598H32.0837V25.3786C32.0837 22.7098 26.7316 21.3682 24.0628 21.3682ZM13.1253 19.9098C9.72741 19.9098 2.91699 21.6161 2.91699 25.014V28.6598H13.1253V25.3786C13.1253 24.139 13.6066 21.9661 16.5816 20.3182C15.3128 20.0557 14.0878 19.9098 13.1253 19.9098Z" fill="white"/>
</g>
<defs>
<clipPath id="clip0_22_3186">
<rect width="35" height="35" fill="white" transform="translate(0 0.95166)"/>
</clipPath>
</defs>
</svg>

